<svg width="46" height="49" viewBox="0 0 46 49" fill="none" xmlns="http://www.w3.org/2000/svg">
<path d="M28.75 34.7083H38.3333L35.6405 31.8399C34.9103 31.062 34.5 30.007 34.5 28.9068V22.4583C34.5 17.1246 31.2999 12.5871 26.8333 10.9054V10.2083C26.8333 7.95317 25.1171 6.125 23 6.125C20.8829 6.125 19.1667 7.95317 19.1667 10.2083V10.9054C14.7001 12.5871 11.5 17.1246 11.5 22.4583V28.9068C11.5 30.007 11.0897 31.062 10.3595 31.8399L7.66667 34.7083H17.25M28.75 34.7083V36.75C28.75 40.1327 26.1756 42.875 23 42.875C19.8244 42.875 17.25 40.1327 17.25 36.75V34.7083M28.75 34.7083H17.25" stroke="white" stroke-width="2" stroke-linecap="round" stroke-linejoin="round"/>
</svg>
