<svg width="46" height="46" viewBox="0 0 46 46" fill="none" xmlns="http://www.w3.org/2000/svg">
<path d="M23 22C22.4477 22 22 22.4477 22 23C22 23.5523 22.4477 24 23 24V22ZM28.75 24C29.3023 24 29.75 23.5523 29.75 23C29.75 22.4477 29.3023 22 28.75 22V24ZM23 29.6667C22.4477 29.6667 22 30.1144 22 30.6667C22 31.219 22.4477 31.6667 23 31.6667V29.6667ZM28.75 31.6667C29.3023 31.6667 29.75 31.219 29.75 30.6667C29.75 30.1144 29.3023 29.6667 28.75 29.6667V31.6667ZM17.25 22C16.6977 22 16.25 22.4477 16.25 23C16.25 23.5523 16.6977 24 17.25 24V22ZM17.2692 24C17.8215 24 18.2692 23.5523 18.2692 23C18.2692 22.4477 17.8215 22 17.2692 22V24ZM17.25 29.6667C16.6977 29.6667 16.25 30.1144 16.25 30.6667C16.25 31.219 16.6977 31.6667 17.25 31.6667V29.6667ZM17.2692 31.6667C17.8215 31.6667 18.2692 31.219 18.2692 30.6667C18.2692 30.1144 17.8215 29.6667 17.2692 29.6667V31.6667ZM35.4167 13.4167V36.4167H37.4167V13.4167H35.4167ZM32.5833 39.25H13.4167V41.25H32.5833V39.25ZM10.5833 36.4167V13.4167H8.58333V36.4167H10.5833ZM13.4167 10.5833H17.25V8.58333H13.4167V10.5833ZM28.75 10.5833H32.5833V8.58333H28.75V10.5833ZM13.4167 39.25C11.8519 39.25 10.5833 37.9815 10.5833 36.4167H8.58333C8.58333 39.086 10.7473 41.25 13.4167 41.25V39.25ZM35.4167 36.4167C35.4167 37.9815 34.1481 39.25 32.5833 39.25V41.25C35.2527 41.25 37.4167 39.086 37.4167 36.4167H35.4167ZM37.4167 13.4167C37.4167 10.7473 35.2527 8.58333 32.5833 8.58333V10.5833C34.1481 10.5833 35.4167 11.8519 35.4167 13.4167H37.4167ZM10.5833 13.4167C10.5833 11.8519 11.8519 10.5833 13.4167 10.5833V8.58333C10.7473 8.58333 8.58333 10.7473 8.58333 13.4167H10.5833ZM23 24H28.75V22H23V24ZM23 31.6667H28.75V29.6667H23V31.6667ZM21.0833 6.75H24.9167V4.75H21.0833V6.75ZM24.9167 12.4167H21.0833V14.4167H24.9167V12.4167ZM21.0833 12.4167C19.5185 12.4167 18.25 11.1481 18.25 9.58333H16.25C16.25 12.2527 18.414 14.4167 21.0833 14.4167V12.4167ZM27.75 9.58333C27.75 11.1481 26.4815 12.4167 24.9167 12.4167V14.4167C27.586 14.4167 29.75 12.2527 29.75 9.58333H27.75ZM24.9167 6.75C26.4815 6.75 27.75 8.01853 27.75 9.58333H29.75C29.75 6.91396 27.586 4.75 24.9167 4.75V6.75ZM21.0833 4.75C18.414 4.75 16.25 6.91396 16.25 9.58333H18.25C18.25 8.01853 19.5185 6.75 21.0833 6.75V4.75ZM17.25 24H17.2692V22H17.25V24ZM17.25 31.6667H17.2692V29.6667H17.25V31.6667Z" fill="white"/>
</svg>
