<svg width="46" height="38" viewBox="0 0 46 38" fill="none" xmlns="http://www.w3.org/2000/svg">
<path d="M5.75 18.5767L9.58333 15.4806M9.58333 15.4806L23 4.64404L36.4167 15.4806M9.58333 15.4806V30.9614C9.58333 31.8163 10.4415 32.5094 11.5 32.5094H17.25M36.4167 15.4806L40.25 18.5767M36.4167 15.4806V30.9614C36.4167 31.8163 35.5585 32.5094 34.5 32.5094H28.75M17.25 32.5094C18.3085 32.5094 19.1667 31.8163 19.1667 30.9614V24.769C19.1667 23.9141 20.0248 23.221 21.0833 23.221H24.9167C25.9752 23.221 26.8333 23.9141 26.8333 24.769V30.9614C26.8333 31.8163 27.6915 32.5094 28.75 32.5094M17.25 32.5094H28.75" stroke="white" stroke-width="2" stroke-linecap="round" stroke-linejoin="round"/>
</svg>
