<svg width="48" height="48" viewBox="0 0 48 48" fill="none" xmlns="http://www.w3.org/2000/svg">
<path d="M24 23C23.4477 23 23 23.4477 23 24C23 24.5523 23.4477 25 24 25V23ZM30 25C30.5523 25 31 24.5523 31 24C31 23.4477 30.5523 23 30 23V25ZM24 31C23.4477 31 23 31.4477 23 32C23 32.5523 23.4477 33 24 33V31ZM30 33C30.5523 33 31 32.5523 31 32C31 31.4477 30.5523 31 30 31V33ZM18 23C17.4477 23 17 23.4477 17 24C17 24.5523 17.4477 25 18 25V23ZM18.02 25C18.5723 25 19.02 24.5523 19.02 24C19.02 23.4477 18.5723 23 18.02 23V25ZM18 31C17.4477 31 17 31.4477 17 32C17 32.5523 17.4477 33 18 33V31ZM18.02 33C18.5723 33 19.02 32.5523 19.02 32C19.02 31.4477 18.5723 31 18.02 31V33ZM37 14V38H39V14H37ZM34 41H14V43H34V41ZM11 38V14H9V38H11ZM14 11H18V9H14V11ZM30 11H34V9H30V11ZM14 41C12.3431 41 11 39.6569 11 38H9C9 40.7614 11.2386 43 14 43V41ZM37 38C37 39.6569 35.6569 41 34 41V43C36.7614 43 39 40.7614 39 38H37ZM39 14C39 11.2386 36.7614 9 34 9V11C35.6569 11 37 12.3431 37 14H39ZM11 14C11 12.3431 12.3431 11 14 11V9C11.2386 9 9 11.2386 9 14H11ZM24 25H30V23H24V25ZM24 33H30V31H24V33ZM22 7H26V5H22V7ZM26 13H22V15H26V13ZM22 13C20.3431 13 19 11.6569 19 10H17C17 12.7614 19.2386 15 22 15V13ZM29 10C29 11.6569 27.6569 13 26 13V15C28.7614 15 31 12.7614 31 10H29ZM26 7C27.6569 7 29 8.34315 29 10H31C31 7.23858 28.7614 5 26 5V7ZM22 5C19.2386 5 17 7.23858 17 10H19C19 8.34315 20.3431 7 22 7V5ZM18 25H18.02V23H18V25ZM18 33H18.02V31H18V33Z" fill="white"/>
</svg>
